<svg width="32" height="32" viewBox="0 0 32 32" fill="none" xmlns="http://www.w3.org/2000/svg">
<path d="M30 4H26V0H24V4H20V6H24V10H26V6H30V4Z" fill="white"/>
<path d="M11.5 11C11.0055 11 10.5222 11.1466 10.1111 11.4213C9.69995 11.696 9.37952 12.0864 9.1903 12.5433C9.00108 13.0001 8.95157 13.5027 9.04804 13.9877C9.1445 14.4726 9.3826 14.9181 9.73223 15.2677C10.0819 15.6174 10.5273 15.8555 11.0123 15.9519C11.4972 16.0484 11.9999 15.9989 12.4567 15.8097C12.9135 15.6204 13.304 15.3 13.5787 14.8889C13.8534 14.4778 14 13.9944 14 13.5C14.0027 13.1709 13.9398 12.8446 13.8151 12.5401C13.6904 12.2356 13.5064 11.9589 13.2737 11.7263C13.041 11.4936 12.7644 11.3095 12.4599 11.1848C12.1553 11.0601 11.829 10.9973 11.5 11Z" fill="white"/>
<path d="M20.5 11C20.0055 11 19.5222 11.1466 19.1111 11.4213C18.7 11.696 18.3795 12.0864 18.1903 12.5433C18.0011 13.0001 17.9516 13.5027 18.048 13.9877C18.1445 14.4726 18.3826 14.9181 18.7322 15.2677C19.0819 15.6174 19.5273 15.8555 20.0123 15.9519C20.4972 16.0484 20.9999 15.9989 21.4567 15.8097C21.9135 15.6204 22.304 15.3 22.5787 14.8889C22.8534 14.4778 23 13.9944 23 13.5C23.0027 13.1709 22.9398 12.8446 22.8151 12.5401C22.6904 12.2356 22.5064 11.9589 22.2737 11.7263C22.041 11.4936 21.7644 11.3095 21.4599 11.1848C21.1553 11.0601 20.829 10.9973 20.5 11Z" fill="white"/>
<path d="M9 20C9.71884 21.217 10.7425 22.2255 11.9701 22.9261C13.1976 23.6267 14.5866 23.9952 16 23.9952C17.4134 23.9952 18.8024 23.6267 20.0299 22.9261C21.2575 22.2255 22.2812 21.217 23 20H9Z" fill="white"/>
<path d="M27.82 14C28.2299 16.4251 27.8848 18.9176 26.8312 21.1401C25.7777 23.3626 24.0667 25.2077 21.9299 26.4255C19.7931 27.6434 17.3336 28.1753 14.8845 27.9492C12.4354 27.723 10.1149 26.7498 8.23723 25.1612C6.35954 23.5726 5.01533 21.4455 4.38658 19.0677C3.75783 16.6899 3.8749 14.1763 4.72196 11.8672C5.56902 9.55816 7.10514 7.56514 9.12236 6.15799C11.1396 4.75083 13.5405 3.99751 16 4V2C13.2311 2 10.5243 2.82109 8.22202 4.35943C5.91973 5.89777 4.12532 8.08427 3.06569 10.6424C2.00607 13.2006 1.72882 16.0155 2.26901 18.7313C2.80921 21.447 4.14258 23.9416 6.10051 25.8995C8.05845 27.8574 10.553 29.1908 13.2687 29.731C15.9845 30.2712 18.7994 29.9939 21.3576 28.9343C23.9157 27.8747 26.1022 26.0803 27.6406 23.778C29.1789 21.4757 30 18.7689 30 16C29.9923 15.3305 29.9388 14.6622 29.84 14H27.82Z" fill="white"/>
</svg>
