<svg width="149" height="149" viewBox="0 0 149 149" fill="none" xmlns="http://www.w3.org/2000/svg">
<path d="M125.719 36.0859H105.93L101.215 22.8738C100.89 21.9698 100.293 21.1883 99.5061 20.6362C98.7196 20.0841 97.7819 19.7882 96.8209 19.7891H52.1791C50.2147 19.7891 48.4541 21.0259 47.7993 22.8738L43.0703 36.0859H23.2812C16.8498 36.0859 11.6406 41.2951 11.6406 47.7266V114.078C11.6406 120.51 16.8498 125.719 23.2812 125.719H125.719C132.15 125.719 137.359 120.51 137.359 114.078V47.7266C137.359 41.2951 132.15 36.0859 125.719 36.0859ZM126.883 114.078C126.883 114.718 126.359 115.242 125.719 115.242H23.2812C22.641 115.242 22.1172 114.718 22.1172 114.078V47.7266C22.1172 47.0863 22.641 46.5625 23.2812 46.5625H50.4476L52.9357 39.6072L56.2679 30.2656H92.7176L96.0497 39.6072L98.5379 46.5625H125.719C126.359 46.5625 126.883 47.0863 126.883 47.7266V114.078ZM74.5 55.875C61.6371 55.875 51.2188 66.2934 51.2188 79.1562C51.2188 92.0191 61.6371 102.437 74.5 102.437C87.3629 102.437 97.7812 92.0191 97.7812 79.1562C97.7812 66.2934 87.3629 55.875 74.5 55.875ZM74.5 93.125C66.7881 93.125 60.5312 86.8682 60.5312 79.1562C60.5312 71.4443 66.7881 65.1875 74.5 65.1875C82.2119 65.1875 88.4688 71.4443 88.4688 79.1562C88.4688 86.8682 82.2119 93.125 74.5 93.125Z" fill="black" fill-opacity="0.44"/>
</svg>
