<svg width="38" height="38" viewBox="0 0 38 38" fill="none" xmlns="http://www.w3.org/2000/svg">
<path d="M26.125 15.4375C26.125 15.1226 26.2501 14.8205 26.4728 14.5978C26.6955 14.3751 26.9976 14.25 27.3125 14.25H29.6875C30.0024 14.25 30.3045 14.3751 30.5272 14.5978C30.7499 14.8205 30.875 15.1226 30.875 15.4375V17.8125C30.875 18.1274 30.7499 18.4295 30.5272 18.6522C30.3045 18.8749 30.0024 19 29.6875 19H27.3125C26.9976 19 26.6955 18.8749 26.4728 18.6522C26.2501 18.4295 26.125 18.1274 26.125 17.8125V15.4375ZM19 15.4375C19 15.1226 19.1251 14.8205 19.3478 14.5978C19.5705 14.3751 19.8726 14.25 20.1875 14.25H22.5625C22.8774 14.25 23.1795 14.3751 23.4022 14.5978C23.6249 14.8205 23.75 15.1226 23.75 15.4375V17.8125C23.75 18.1274 23.6249 18.4295 23.4022 18.6522C23.1795 18.8749 22.8774 19 22.5625 19H20.1875C19.8726 19 19.5705 18.8749 19.3478 18.6522C19.1251 18.4295 19 18.1274 19 17.8125V15.4375ZM7.125 22.5625C7.125 22.2476 7.25011 21.9455 7.47281 21.7228C7.69551 21.5001 7.99756 21.375 8.3125 21.375H10.6875C11.0024 21.375 11.3045 21.5001 11.5272 21.7228C11.7499 21.9455 11.875 22.2476 11.875 22.5625V24.9375C11.875 25.2524 11.7499 25.5545 11.5272 25.7772C11.3045 25.9999 11.0024 26.125 10.6875 26.125H8.3125C7.99756 26.125 7.69551 25.9999 7.47281 25.7772C7.25011 25.5545 7.125 25.2524 7.125 24.9375V22.5625ZM14.25 22.5625C14.25 22.2476 14.3751 21.9455 14.5978 21.7228C14.8205 21.5001 15.1226 21.375 15.4375 21.375H17.8125C18.1274 21.375 18.4295 21.5001 18.6522 21.7228C18.8749 21.9455 19 22.2476 19 22.5625V24.9375C19 25.2524 18.8749 25.5545 18.6522 25.7772C18.4295 25.9999 18.1274 26.125 17.8125 26.125H15.4375C15.1226 26.125 14.8205 25.9999 14.5978 25.7772C14.3751 25.5545 14.25 25.2524 14.25 24.9375V22.5625Z" fill="white"/>
<path d="M8.3125 0C8.62744 0 8.92949 0.125111 9.15219 0.347811C9.37489 0.57051 9.5 0.872555 9.5 1.1875V2.375H28.5V1.1875C28.5 0.872555 28.6251 0.57051 28.8478 0.347811C29.0705 0.125111 29.3726 0 29.6875 0C30.0024 0 30.3045 0.125111 30.5272 0.347811C30.7499 0.57051 30.875 0.872555 30.875 1.1875V2.375H33.25C34.5098 2.375 35.718 2.87545 36.6088 3.76624C37.4996 4.65704 38 5.86522 38 7.125V33.25C38 34.5098 37.4996 35.718 36.6088 36.6088C35.718 37.4996 34.5098 38 33.25 38H4.75C3.49022 38 2.28204 37.4996 1.39124 36.6088C0.500445 35.718 0 34.5098 0 33.25V7.125C0 5.86522 0.500445 4.65704 1.39124 3.76624C2.28204 2.87545 3.49022 2.375 4.75 2.375H7.125V1.1875C7.125 0.872555 7.25011 0.57051 7.47281 0.347811C7.69551 0.125111 7.99756 0 8.3125 0V0ZM2.375 9.5V33.25C2.375 33.8799 2.62522 34.484 3.07062 34.9294C3.51602 35.3748 4.12011 35.625 4.75 35.625H33.25C33.8799 35.625 34.484 35.3748 34.9294 34.9294C35.3748 34.484 35.625 33.8799 35.625 33.25V9.5H2.375Z" fill="white"/>
</svg>
