<svg width="55" height="55" viewBox="0 0 55 55" fill="none" xmlns="http://www.w3.org/2000/svg">
<circle cx="27.5" cy="27.5" r="27.5" fill="#F2542D"/>
<path d="M16.8 34.2425V36.4545H39.2V34.2553L34.8516 35.2136L28.0476 33.9358L21.0798 35.2136L16.8 34.2425ZM16.8 31.6182L21.1456 32.6045L28.056 31.3369L34.8026 32.6045L39.2 31.636V30.0909C39.2 29.7534 39.0525 29.4296 38.7899 29.191C38.5274 28.9523 38.1713 28.8182 37.8 28.8182H18.2C17.8287 28.8182 17.4726 28.9523 17.2101 29.191C16.9475 29.4296 16.8 29.7534 16.8 30.0909V31.6182ZM32.2 26.2727H37.8C38.9139 26.2727 39.9822 26.675 40.7698 27.391C41.5575 28.1071 42 29.0783 42 30.0909V39H14V30.0909C14 29.0783 14.4425 28.1071 15.2302 27.391C16.0178 26.675 17.0861 26.2727 18.2 26.2727H23.8V22.4545H32.2V26.2727ZM29.4 26.2727V25H26.6V26.2727H29.4ZM28 21.6909C26.8861 21.6909 25.8178 21.2886 25.0302 20.5726C24.2425 19.8565 23.8 18.8854 23.8 17.8727C23.8 16.4664 25.2 14.1755 28 11C30.8 14.1755 32.2 16.4664 32.2 17.8727C32.2 18.8854 31.7575 19.8565 30.9698 20.5726C30.1822 21.2886 29.1139 21.6909 28 21.6909ZM27.9972 19.1696C28.77 19.1696 29.3972 18.5587 29.3972 17.8053C29.3972 17.3038 28.9296 16.4855 27.9972 15.3515C27.0634 16.4855 26.5972 17.3038 26.5972 17.8053C26.5972 18.5587 27.2244 19.1696 27.9972 19.1696Z" fill="white"/>
</svg>
