<svg width="32" height="26" viewBox="0 0 32 26" fill="none" xmlns="http://www.w3.org/2000/svg">
<path d="M26.4501 0.599976C27.7098 0.599976 28.918 1.10042 29.8088 1.99122C30.6996 2.88202 31.2001 4.0902 31.2001 5.34998V20.55C31.2001 21.8098 30.6996 23.0179 29.8088 23.9087C28.918 24.7995 27.7098 25.3 26.4501 25.3H5.55005C4.29027 25.3 3.08209 24.7995 2.19129 23.9087C1.30049 23.0179 0.800049 21.8098 0.800049 20.55V5.34998C0.800049 4.0902 1.30049 2.88202 2.19129 1.99122C3.08209 1.10042 4.29027 0.599976 5.55005 0.599976H26.4501ZM29.3001 8.12588L16.4826 15.6689C16.3615 15.74 16.226 15.7834 16.0861 15.7959C15.9461 15.8084 15.8051 15.7897 15.6732 15.7411L15.5175 15.6689L2.70005 8.12968V20.55C2.70005 21.3058 3.00032 22.0308 3.53479 22.5652C4.06927 23.0997 4.79418 23.4 5.55005 23.4H26.4501C27.2059 23.4 27.9308 23.0997 28.4653 22.5652C28.9998 22.0308 29.3001 21.3058 29.3001 20.55V8.12588ZM26.4501 2.49998H5.55005C4.79418 2.49998 4.06927 2.80024 3.53479 3.33472C3.00032 3.8692 2.70005 4.59411 2.70005 5.34998V5.92378L16 13.748L29.3001 5.91998V5.34998C29.3001 4.59411 28.9998 3.8692 28.4653 3.33472C27.9308 2.80024 27.2059 2.49998 26.4501 2.49998Z" fill="white"/>
</svg>
