<svg width="265" height="265" viewBox="0 0 265 265" fill="none" xmlns="http://www.w3.org/2000/svg">
<rect width="265" height="265" rx="20" fill="#0E9594"/>
<path d="M77.9675 81V66.78H74.5835V63.396H77.9675V63.36C77.9675 60.864 78.6155 58.98 79.9115 57.708C81.2315 56.436 83.2715 55.716 86.0315 55.548L87.7955 55.44L88.0835 58.752L86.4275 58.86C84.9875 58.956 83.9675 59.316 83.3675 59.94C82.7675 60.54 82.4675 61.44 82.4675 62.64V63.396H87.2555V66.78H82.4675V81H77.9675ZM89.8927 81V63.396H94.2847V66.492C95.1487 64.404 96.9967 63.252 99.8287 63.036L101.197 62.928L101.485 66.744L98.8927 66.996C95.9407 67.284 94.4647 68.796 94.4647 71.532V81H89.8927ZM103.702 59.616V55.224H108.742V59.616H103.702ZM103.99 81V63.396H108.49V81H103.99ZM121.842 81.36C119.85 81.36 118.134 80.988 116.694 80.244C115.254 79.5 114.138 78.444 113.346 77.076C112.578 75.708 112.194 74.088 112.194 72.216C112.194 70.392 112.566 68.796 113.31 67.428C114.078 66.06 115.122 64.992 116.442 64.224C117.786 63.432 119.31 63.036 121.014 63.036C123.51 63.036 125.478 63.828 126.918 65.412C128.382 66.996 129.114 69.156 129.114 71.892V73.224H116.514C116.85 76.368 118.65 77.94 121.914 77.94C122.898 77.94 123.882 77.796 124.866 77.508C125.85 77.196 126.75 76.716 127.566 76.068L128.826 79.092C127.986 79.788 126.93 80.34 125.658 80.748C124.386 81.156 123.114 81.36 121.842 81.36ZM121.194 66.096C119.874 66.096 118.806 66.504 117.99 67.32C117.174 68.136 116.682 69.24 116.514 70.632H125.37C125.274 69.168 124.866 68.052 124.146 67.284C123.45 66.492 122.466 66.096 121.194 66.096ZM132.678 81V63.396H137.07V66.132C137.67 65.124 138.474 64.356 139.482 63.828C140.514 63.3 141.666 63.036 142.938 63.036C147.09 63.036 149.166 65.448 149.166 70.272V81H144.666V70.488C144.666 69.12 144.402 68.124 143.874 67.5C143.37 66.876 142.578 66.564 141.498 66.564C140.178 66.564 139.122 66.984 138.33 67.824C137.562 68.64 137.178 69.732 137.178 71.1V81H132.678ZM160.504 81.36C158.968 81.36 157.612 80.988 156.436 80.244C155.284 79.5 154.384 78.444 153.736 77.076C153.088 75.684 152.764 74.052 152.764 72.18C152.764 70.284 153.088 68.664 153.736 67.32C154.384 65.952 155.284 64.896 156.436 64.152C157.612 63.408 158.968 63.036 160.504 63.036C161.752 63.036 162.88 63.312 163.888 63.864C164.896 64.416 165.652 65.148 166.156 66.06V55.62H170.656V81H166.264V78.084C165.784 79.092 165.028 79.896 163.996 80.496C162.964 81.072 161.8 81.36 160.504 81.36ZM161.764 77.94C163.108 77.94 164.188 77.46 165.004 76.5C165.82 75.516 166.228 74.076 166.228 72.18C166.228 70.26 165.82 68.832 165.004 67.896C164.188 66.936 163.108 66.456 161.764 66.456C160.42 66.456 159.34 66.936 158.524 67.896C157.708 68.832 157.3 70.26 157.3 72.18C157.3 74.076 157.708 75.516 158.524 76.5C159.34 77.46 160.42 77.94 161.764 77.94ZM181.766 81.36C180.278 81.36 178.886 81.18 177.59 80.82C176.294 80.46 175.214 79.944 174.35 79.272L175.502 76.32C176.39 76.92 177.386 77.388 178.49 77.724C179.594 78.036 180.698 78.192 181.802 78.192C182.954 78.192 183.806 78 184.358 77.616C184.934 77.208 185.222 76.68 185.222 76.032C185.222 75.024 184.478 74.376 182.99 74.088L179.39 73.404C176.342 72.828 174.818 71.244 174.818 68.652C174.818 67.5 175.13 66.504 175.754 65.664C176.402 64.824 177.29 64.176 178.418 63.72C179.546 63.264 180.842 63.036 182.306 63.036C183.554 63.036 184.754 63.216 185.906 63.576C187.058 63.912 188.042 64.428 188.858 65.124L187.634 68.076C186.938 67.5 186.098 67.044 185.114 66.708C184.154 66.372 183.23 66.204 182.342 66.204C181.166 66.204 180.29 66.408 179.714 66.816C179.162 67.224 178.886 67.764 178.886 68.436C178.886 69.492 179.57 70.14 180.938 70.38L184.538 71.064C186.098 71.352 187.274 71.88 188.066 72.648C188.882 73.416 189.29 74.448 189.29 75.744C189.29 77.496 188.606 78.876 187.238 79.884C185.87 80.868 184.046 81.36 181.766 81.36Z" fill="white"/>
<path d="M96.1243 191.44C90.9403 191.44 86.2843 190.288 82.1562 187.984C78.1243 185.68 75.1003 182.56 73.0843 178.624V190H55.5163V88.48H73.5163V129.952C75.6283 126.4 78.6523 123.568 82.5883 121.456C86.6203 119.248 91.1323 118.144 96.1243 118.144C102.364 118.144 107.788 119.632 112.396 122.608C117.004 125.584 120.604 129.808 123.196 135.28C125.788 140.656 127.084 147.136 127.084 154.72C127.084 162.208 125.788 168.736 123.196 174.304C120.604 179.776 116.956 184 112.252 186.976C107.644 189.952 102.268 191.44 96.1243 191.44ZM91.0843 177.76C96.4603 177.76 100.78 175.84 104.044 172C107.308 168.064 108.94 162.304 108.94 154.72C108.94 147.04 107.308 141.328 104.044 137.584C100.78 133.744 96.4603 131.824 91.0843 131.824C85.7083 131.824 81.3883 133.744 78.1243 137.584C74.8603 141.328 73.2283 147.04 73.2283 154.72C73.2283 162.304 74.8603 168.064 78.1243 172C81.3883 175.84 85.7083 177.76 91.0843 177.76ZM168.932 191.44C162.788 191.44 157.364 189.952 152.66 186.976C148.052 184 144.452 179.776 141.86 174.304C139.268 168.736 137.972 162.208 137.972 154.72C137.972 147.136 139.268 140.656 141.86 135.28C144.452 129.808 148.052 125.584 152.66 122.608C157.364 119.632 162.788 118.144 168.932 118.144C173.924 118.144 178.436 119.248 182.468 121.456C186.5 123.664 189.524 126.592 191.54 130.24V88.48H209.54V190H191.972V178.336C190.052 182.368 187.028 185.584 182.9 187.984C178.772 190.288 174.116 191.44 168.932 191.44ZM173.972 177.76C179.348 177.76 183.668 175.84 186.932 172C190.196 168.064 191.828 162.304 191.828 154.72C191.828 147.04 190.196 141.328 186.932 137.584C183.668 133.744 179.348 131.824 173.972 131.824C168.596 131.824 164.276 133.744 161.012 137.584C157.748 141.328 156.116 147.04 156.116 154.72C156.116 162.304 157.748 168.064 161.012 172C164.276 175.84 168.596 177.76 173.972 177.76Z" fill="white"/>
<path d="M106.778 61C108.864 61 110.556 59.3086 110.556 57.2222C110.556 55.1358 108.864 53.4444 106.778 53.4444C104.691 53.4444 103 55.1358 103 57.2222C103 59.3086 104.691 61 106.778 61Z" fill="#FFCC4D"/>
<path d="M107 59.3333C107.245 59.3333 107.444 59.0846 107.444 58.7778C107.444 58.471 107.245 58.2222 107 58.2222C106.754 58.2222 106.555 58.471 106.555 58.7778C106.555 59.0846 106.754 59.3333 107 59.3333Z" fill="#664500"/>
<path d="M104.803 57.7518C104.762 57.7518 104.721 57.7407 104.684 57.7176C104.581 57.6522 104.549 57.5151 104.615 57.4111C104.818 57.0882 105.437 56.536 106.324 56.7529C106.443 56.782 106.516 56.9025 106.487 57.0216C106.457 57.1407 106.336 57.2131 106.218 57.1845C105.417 56.9885 104.995 57.6414 104.991 57.648C104.949 57.7151 104.876 57.7518 104.803 57.7518V57.7518ZM107.463 56.9202C107.399 56.9202 107.335 56.8925 107.291 56.8389C107.213 56.744 107.227 56.6038 107.322 56.526C108.028 55.9474 108.825 56.1789 109.148 56.3825C109.252 56.4478 109.283 56.5851 109.217 56.6889C109.152 56.7922 109.015 56.8238 108.911 56.7589C108.881 56.7402 108.233 56.3538 107.604 56.8698C107.563 56.9038 107.513 56.9202 107.463 56.9202Z" fill="#664500"/>
<path d="M105.966 59.9496C105.951 59.9496 105.935 59.9476 105.92 59.9433C105.832 59.9182 105.78 59.8262 105.805 59.7376C105.903 59.3953 105.863 59.0644 105.697 58.8296C105.586 58.6736 105.429 58.5782 105.265 58.5678C105.173 58.5622 105.103 58.4829 105.109 58.3911C105.115 58.2993 105.193 58.2242 105.285 58.2353C105.551 58.2518 105.799 58.3982 105.968 58.6369C106.193 58.9544 106.251 59.3887 106.126 59.8282C106.105 59.9018 106.038 59.9496 105.966 59.9496ZM108.419 59.2693C108.387 59.2693 108.355 59.2604 108.327 59.2418C108.068 59.0707 107.923 58.7713 107.929 58.4207C107.935 58.0573 108.109 57.72 108.37 57.5609C108.448 57.5129 108.551 57.5378 108.599 57.6167C108.647 57.6953 108.622 57.7976 108.543 57.8456C108.379 57.9451 108.266 58.1787 108.262 58.4264C108.257 58.6609 108.348 58.8567 108.51 58.9636C108.587 59.0142 108.608 59.1176 108.558 59.1944C108.526 59.2431 108.473 59.2693 108.419 59.2693V59.2693Z" fill="#E2A62D"/>
<path d="M106.818 53.6045C106.808 53.5936 106.793 53.5876 106.776 53.5842C106.776 53.5842 103.237 52.9125 103.084 53.0476C102.931 53.1829 103.165 56.7773 103.165 56.7773C103.166 56.7953 103.17 56.8107 103.179 56.8216C103.314 56.9736 104.237 56.3762 105.241 55.488C106.246 54.5996 106.952 53.7565 106.818 53.6045V53.6045Z" fill="#DD2E44"/>
<path d="M103.078 53.0602C103.074 53.0669 103.071 53.076 103.069 53.0876C103.104 53.3922 103.446 55.8991 103.658 56.6827C103.978 56.5042 104.302 56.2618 104.683 55.9598C104.359 55.3676 103.257 53.0325 103.078 53.0602Z" fill="#EA596E"/>
<path d="M109.645 59.4953L107.295 59.2058C107.044 59.1831 106.603 59.1809 106.625 58.7831C106.646 58.4224 107.079 58.478 107.398 58.5253L109.762 58.9195L109.645 59.4953V59.4953Z" fill="#3B88C3"/>
<path d="M109.762 58.9198L108.824 58.7589C108.714 58.7391 108.616 58.9027 108.611 59.0758C108.606 59.2682 108.662 59.3656 108.773 59.3882L109.694 59.502L109.762 58.9198V58.9198Z" fill="#88C9F9"/>
<path d="M110.76 58.8535L110.177 59.3893L109.135 58.2567L109.718 57.7209C110.021 57.4427 110.496 57.4627 110.774 57.7651L110.804 57.7978C111.082 58.1004 111.062 58.5753 110.76 58.8535Z" fill="#3B88C3"/>
<path d="M110.176 59.3896C110.427 59.1595 110.396 58.7195 110.109 58.4067C109.821 58.0939 109.385 58.0269 109.135 58.257C108.885 58.4871 108.915 58.9272 109.203 59.2399C109.49 59.5527 109.926 59.6197 110.176 59.3896Z" fill="#88C9F9"/>
<path d="M109.968 59.1631C110.093 59.048 110.055 58.8026 109.882 58.615C109.71 58.4273 109.468 58.3685 109.343 58.4835C109.218 58.5986 109.257 58.844 109.429 59.0316C109.602 59.2193 109.843 59.2781 109.968 59.1631Z" fill="#226699"/>
<path d="M103.556 60.7778C103.74 60.7778 103.889 60.6285 103.889 60.4444C103.889 60.2604 103.74 60.1111 103.556 60.1111C103.371 60.1111 103.222 60.2604 103.222 60.4444C103.222 60.6285 103.371 60.7778 103.556 60.7778Z" fill="#55ACEE"/>
<path d="M109.444 53.8889C109.69 53.8889 109.889 53.6899 109.889 53.4444C109.889 53.199 109.69 53 109.444 53C109.199 53 109 53.199 109 53.4444C109 53.6899 109.199 53.8889 109.444 53.8889Z" fill="#55ACEE"/>
<path d="M104.081 59.4991L103.561 58.2511L103.092 59.5944L104.081 59.4991ZM108.778 54.1111L107.889 54.3333L108.111 53.4444L108.778 54.1111Z" fill="#EA596E"/>
<path d="M110.111 55.8889L111 54.7776L110.333 54.3333L110.111 55.8889Z" fill="#77B255"/>
</svg>
