<svg width="54" height="35" viewBox="0 0 54 35" fill="none" xmlns="http://www.w3.org/2000/svg">
<path d="M15.5311 34.528C13.8671 34.528 12.3631 34.16 11.0191 33.424C9.70713 32.688 8.73113 31.712 8.09113 30.496V34H0.987125V0.159998H8.23513V13.6C8.93913 12.48 9.93113 11.6 11.2111 10.96C12.5231 10.288 13.9631 9.952 15.5311 9.952C17.5791 9.952 19.3711 10.448 20.9071 11.44C22.4751 12.432 23.6911 13.84 24.5551 15.664C25.4191 17.488 25.8511 19.664 25.8511 22.192C25.8511 24.72 25.4191 26.912 24.5551 28.768C23.6911 30.592 22.4751 32.016 20.9071 33.04C19.3711 34.032 17.5791 34.528 15.5311 34.528ZM13.3711 29.104C14.9071 29.104 16.1551 28.544 17.1151 27.424C18.0751 26.304 18.5551 24.56 18.5551 22.192C18.5551 19.856 18.0751 18.144 17.1151 17.056C16.1551 15.936 14.9071 15.376 13.3711 15.376C11.8031 15.376 10.5391 15.936 9.57913 17.056C8.61913 18.144 8.13913 19.856 8.13913 22.192C8.13913 24.56 8.61913 26.304 9.57913 27.424C10.5391 28.544 11.8031 29.104 13.3711 29.104ZM39.452 34.528C37.404 34.528 35.596 34.032 34.028 33.04C32.492 32.016 31.292 30.592 30.428 28.768C29.564 26.912 29.132 24.72 29.132 22.192C29.132 19.664 29.564 17.488 30.428 15.664C31.292 13.84 32.492 12.432 34.028 11.44C35.596 10.448 37.404 9.952 39.452 9.952C41.02 9.952 42.46 10.288 43.772 10.96C45.084 11.632 46.076 12.528 46.748 13.648V0.159998H53.996V34H46.892V30.448C46.252 31.696 45.26 32.688 43.916 33.424C42.604 34.16 41.116 34.528 39.452 34.528ZM41.612 29.104C43.148 29.104 44.396 28.544 45.356 27.424C46.348 26.304 46.844 24.56 46.844 22.192C46.844 19.856 46.348 18.144 45.356 17.056C44.396 15.936 43.148 15.376 41.612 15.376C40.076 15.376 38.828 15.936 37.868 17.056C36.908 18.144 36.428 19.856 36.428 22.192C36.428 24.56 36.908 26.304 37.868 27.424C38.828 28.544 40.076 29.104 41.612 29.104Z" fill="white"/>
</svg>
