<svg width="38" height="38" viewBox="0 0 38 38" fill="none" xmlns="http://www.w3.org/2000/svg">
<path d="M28.5 12.6667H31.6667C32.0866 12.6667 32.4893 12.8335 32.7863 13.1304C33.0832 13.4274 33.25 13.8301 33.25 14.25V33.25C33.25 33.6699 33.0832 34.0727 32.7863 34.3696C32.4893 34.6665 32.0866 34.8333 31.6667 34.8333H6.33333C5.91341 34.8333 5.51068 34.6665 5.21375 34.3696C4.91681 34.0727 4.75 33.6699 4.75 33.25V14.25C4.75 13.8301 4.91681 13.4274 5.21375 13.1304C5.51068 12.8335 5.91341 12.6667 6.33333 12.6667H9.5V11.0833C9.5 8.56378 10.5009 6.14742 12.2825 4.36582C14.0641 2.58423 16.4804 1.58334 19 1.58334C21.5196 1.58334 23.9359 2.58423 25.7175 4.36582C27.4991 6.14742 28.5 8.56378 28.5 11.0833V12.6667ZM7.91667 15.8333V31.6667H30.0833V15.8333H7.91667ZM17.4167 22.1667H20.5833V25.3333H17.4167V22.1667ZM11.0833 22.1667H14.25V25.3333H11.0833V22.1667ZM23.75 22.1667H26.9167V25.3333H23.75V22.1667ZM25.3333 12.6667V11.0833C25.3333 9.40363 24.6661 7.79272 23.4783 6.60499C22.2906 5.41726 20.6797 4.75 19 4.75C17.3203 4.75 15.7094 5.41726 14.5217 6.60499C13.3339 7.79272 12.6667 9.40363 12.6667 11.0833V12.6667H25.3333Z" fill="white"/>
</svg>
