<svg width="497" height="447" viewBox="0 0 497 447" fill="none" xmlns="http://www.w3.org/2000/svg">
<path fill-rule="evenodd" clip-rule="evenodd" d="M420.92 -300.131C488.945 -275.291 527.258 -206.943 566.581 -146.084C601.528 -91.998 619.699 -32.8885 634.159 29.8869C651.787 106.413 704.846 194.017 659.735 258.307C614.274 323.096 507.536 282.122 435.013 313.702C357.965 347.251 311.868 446.162 227.864 446.361C140.374 446.568 41.5057 395.699 8.24746 314.71C-25.2195 233.213 56.2915 151.42 71.0637 64.5282C81.127 5.33454 59.2638 -54.8058 80.6083 -110.927C105.811 -177.192 139.9 -244.852 201.825 -279.281C267.58 -315.839 350.29 -325.923 420.92 -300.131Z" fill="white"/>
</svg>
