<svg width="504" height="352" viewBox="0 0 504 352" fill="none" xmlns="http://www.w3.org/2000/svg">
<path fill-rule="evenodd" clip-rule="evenodd" d="M186.036 23.0367C250.539 11.0036 324.252 -19.4134 378.004 18.2173C431.742 55.838 418.112 138.064 439.112 200.209C460.473 263.424 513.33 319.341 501.978 385.094C490.11 453.839 443.051 520.341 379.051 548.101C318.001 574.582 252.464 518.159 186.036 522.135C112.21 526.553 43.0388 602.333 -24.5272 572.255C-91.2888 542.534 -102.181 452.923 -125.219 383.572C-148.421 313.726 -193.21 235.268 -157.928 170.678C-122.37 105.581 -28.266 110.55 39.8955 81.2929C89.2941 60.0894 133.191 32.8952 186.036 23.0367Z" fill="white"/>
</svg>
