<svg width="415" height="418" viewBox="0 0 415 418" fill="none" xmlns="http://www.w3.org/2000/svg">
<path fill-rule="evenodd" clip-rule="evenodd" d="M53.5052 -167.803C113.826 -158.191 167.506 -135.241 221.477 -106.638C285.307 -72.8094 364.137 -51.6457 395.485 13.4386C427.955 80.8514 413.517 163.117 384.657 232.152C357.236 297.745 303.644 348.958 241.096 382.751C184.062 413.564 116.516 426.29 53.5052 411.062C-2.49033 397.529 -28.1392 334.392 -78.0487 305.623C-137.818 271.171 -227.172 285.942 -264.361 227.836C-302.095 168.877 -277.03 90.6593 -258.903 23.0473C-239.867 -47.9506 -221.179 -128.86 -158.452 -167.179C-96.6472 -204.936 -18.0175 -179.2 53.5052 -167.803Z" fill="white"/>
</svg>
