<svg width="30" height="30" viewBox="0 0 30 30" fill="none" xmlns="http://www.w3.org/2000/svg">
<path d="M15 15C16.8897 15 18.7019 14.2493 20.0381 12.9131C21.3743 11.5769 22.125 9.76467 22.125 7.875C22.125 5.98533 21.3743 4.17306 20.0381 2.83686C18.7019 1.50067 16.8897 0.75 15 0.75C13.1103 0.75 11.2981 1.50067 9.96186 2.83686C8.62567 4.17306 7.875 5.98533 7.875 7.875C7.875 9.76467 8.62567 11.5769 9.96186 12.9131C11.2981 14.2493 13.1103 15 15 15V15ZM19.75 7.875C19.75 9.13478 19.2496 10.343 18.3588 11.2338C17.468 12.1246 16.2598 12.625 15 12.625C13.7402 12.625 12.532 12.1246 11.6412 11.2338C10.7504 10.343 10.25 9.13478 10.25 7.875C10.25 6.61522 10.7504 5.40704 11.6412 4.51624C12.532 3.62544 13.7402 3.125 15 3.125C16.2598 3.125 17.468 3.62544 18.3588 4.51624C19.2496 5.40704 19.75 6.61522 19.75 7.875V7.875ZM29.25 26.875C29.25 29.25 26.875 29.25 26.875 29.25H3.125C3.125 29.25 0.75 29.25 0.75 26.875C0.75 24.5 3.125 17.375 15 17.375C26.875 17.375 29.25 24.5 29.25 26.875ZM26.875 26.8655C26.8726 26.2813 26.5093 24.5237 24.899 22.9135C23.3505 21.365 20.4364 19.75 15 19.75C9.56125 19.75 6.6495 21.365 5.101 22.9135C3.49075 24.5237 3.12975 26.2813 3.125 26.8655H26.875Z" fill="white"/>
</svg>
